<svg width="34" height="34" viewBox="0 0 34 34" fill="none" xmlns="http://www.w3.org/2000/svg">
<path fill-rule="evenodd" clip-rule="evenodd" d="M30.4827 31.2702C30.4827 28.0326 28.032 25.4081 25.0089 25.4081H1.75854C1.75854 28.6457 4.20926 31.2702 7.23233 31.2702H30.4827Z" fill="#FFDE00"/>
<path fill-rule="evenodd" clip-rule="evenodd" d="M14.8309 2.54605C12.4716 2.54605 10.4331 3.9349 9.46962 5.94955C9.44946 5.9903 9.42935 6.0324 9.41053 6.0745L8.24704 8.56978L6.4394 12.443L3.54338 18.6513L1.75854 22.4771H7.28082C8.07664 22.4771 8.7651 22.0114 9.09518 21.3353L9.14346 21.2281L10.3177 18.6513L13.148 12.443L13.9398 10.7067C13.9626 10.655 13.9853 10.6034 14.0095 10.5519C14.5678 9.37889 15.7541 8.56978 17.127 8.56978H23.7241L22.982 12.0289C22.935 12.2652 22.7284 12.443 22.4802 12.443H18.9749C18.481 12.443 18.0596 12.7593 17.8973 13.2005L17.8758 13.2657L17.1256 15.5669L16.3325 17.9997C16.3177 18.0472 16.3096 18.0974 16.3096 18.149C16.3096 18.426 16.5325 18.6513 16.8063 18.6513H21.5636L20.7436 22.4771H26.2216C26.9328 22.4771 27.5273 21.9666 27.6656 21.2879L28.1447 18.6513L29.272 12.443L29.9751 8.56978L31.0689 2.54605H14.8309Z" fill="white"/>
</svg>
