<svg width="29" height="28" viewBox="0 0 29 28" fill="none" xmlns="http://www.w3.org/2000/svg">
<mask id="mask0_2116_7354" style="mask-type:luminance" maskUnits="userSpaceOnUse" x="0" y="0" width="29" height="28">
<path fill-rule="evenodd" clip-rule="evenodd" d="M0.5 0H28.5V28H0.5V0Z" fill="white"/>
</mask>
<g mask="url(#mask0_2116_7354)">
<path fill-rule="evenodd" clip-rule="evenodd" d="M28.5 14C28.5 16.706 28.4182 19.4114 28.253 22.1174C28.251 22.1643 28.2475 22.2119 28.2439 22.258C28.025 25.2082 25.6547 27.5596 22.6954 27.7478C22.664 27.7499 22.6317 27.752 22.6003 27.7534C17.2008 28.0822 11.8013 28.0822 6.4018 27.7534C6.36683 27.752 6.33113 27.7499 6.29613 27.7471C6.27448 27.7464 6.25281 27.745 6.23111 27.7429C3.31027 27.5211 0.979189 25.1901 0.756744 22.2686C0.755344 22.2511 0.753944 22.2329 0.75327 22.2147C0.75047 22.1734 0.748344 22.1321 0.74627 22.0909C0.582522 19.3939 0.5 16.6969 0.5 14C0.5 11.294 0.581848 8.58862 0.746944 5.88257C0.749044 5.8357 0.752544 5.78812 0.756019 5.74195C0.975041 2.79176 3.34527 0.44041 6.30456 0.252214C6.33603 0.250114 6.36823 0.248014 6.39973 0.246614C11.7992 -0.0822046 17.1987 -0.0822046 22.5982 0.246614C22.6332 0.248014 22.6688 0.250114 22.7038 0.252914C22.7255 0.253614 22.7472 0.255014 22.7689 0.257114C25.6897 0.478884 28.0208 2.80994 28.2433 5.73145C28.2447 5.74895 28.246 5.76715 28.2467 5.78532C28.2495 5.8266 28.2516 5.8679 28.2537 5.90915C28.4174 8.60612 28.5 11.3031 28.5 14" fill="#2D3737"/>
</g>
<path fill-rule="evenodd" clip-rule="evenodd" d="M20.5345 20.5175C20.5345 19.051 19.4018 17.8623 18.0046 17.8623H7.25861C7.25861 19.3287 8.39129 20.5175 9.78851 20.5175H20.5345Z" fill="#FFDE00"/>
<path fill-rule="evenodd" clip-rule="evenodd" d="M13.2872 7.24121C12.1992 7.24121 11.2591 7.88037 10.8148 8.80753C10.8055 8.82628 10.7962 8.84565 10.7875 8.86503L10.2509 10.0134L9.41731 11.7959L8.08173 14.653L7.25861 16.4136H9.80535C10.1724 16.4136 10.4899 16.1993 10.6421 15.8882L10.6644 15.8388L11.2059 14.653L12.5112 11.7959L12.8763 10.9968C12.8868 10.973 12.8973 10.9493 12.9085 10.9255C13.1659 10.3857 13.713 10.0134 14.3462 10.0134H17.3886L17.0464 11.6053C17.0247 11.714 16.9294 11.7959 16.8149 11.7959H15.1984C14.9706 11.7959 14.7763 11.9414 14.7014 12.1445L14.6915 12.1745L14.3455 13.2335L13.9798 14.3531C13.973 14.375 13.9692 14.3981 13.9692 14.4218C13.9692 14.5493 14.072 14.653 14.1983 14.653H16.3922L16.0141 16.4136H18.5404C18.8684 16.4136 19.1426 16.1787 19.2063 15.8663L19.4273 14.653L19.9471 11.7959L20.2714 10.0134L20.7758 7.24121H13.2872Z" fill="white"/>
</svg>
