<svg width="280" height="24" viewBox="0 0 280 24" fill="none" xmlns="http://www.w3.org/2000/svg">
<g clip-path="url(#clip0_2116_7333)">
<path d="M200.57 0.0395312L196.41 22.5995C196.28 23.3595 195.56 23.9795 194.79 23.9795H184.21L188.37 1.41953C188.5 0.659531 189.22 0.0395312 189.98 0.0395312H200.56H200.57ZM228.93 6.15953L225.9 22.5995C225.77 23.3595 225.05 23.9795 224.28 23.9795H213.72L214.05 22.2095C214.05 22.2095 212.93 23.9795 210.52 23.9795H203.28C200.28 23.9795 199.55 22.5095 199.96 20.3395L201.9 9.80953C202.31 7.63953 203.31 6.15953 206.53 6.15953H213.79C216.17 6.15953 216.72 7.74953 216.72 7.74953L216.76 7.53953C216.89 6.77953 217.61 6.15953 218.37 6.15953H228.93ZM214.69 11.3695C213.83 11.3695 213.07 11.3695 212.77 12.9495L211.99 17.1995C211.7 18.7795 212.68 18.7795 213.33 18.7795C214.02 18.7795 214.98 18.7795 215.27 17.1995L216.05 12.9495C216.34 11.3795 215.5 11.3695 214.69 11.3695ZM279.99 6.14953H268C267.51 6.14953 267.04 6.39953 266.73 6.77953L262.75 11.6895L264.9 0.0395312H254.38C253.62 0.0395312 252.89 0.659531 252.77 1.41953L248.56 23.9795H259.14C259.9 23.9795 260.63 23.3595 260.75 22.5995L261.72 17.3395L263.91 23.9795H277.3L272.21 14.3695L280 6.14953H279.99ZM243.54 8.64953L244 6.14953H233.42C232.66 6.14953 231.93 6.76953 231.81 7.52953L228.78 23.9695H239.35C240.11 23.9695 240.84 23.3495 240.96 22.5895L241.92 17.1495C242.22 15.3695 243.9 13.9295 245.67 13.9295C246.37 13.9295 246.99 14.1595 247.45 14.5395L249.02 6.07953C244.92 6.60953 243.53 8.63953 243.53 8.63953L243.54 8.64953ZM185.54 0.0395312H168.28C166.28 0.0395312 164.39 1.65953 164.06 3.64953L160.97 20.3695C160.64 22.3695 161.99 23.9795 163.98 23.9795H179.97C179.97 23.9795 179.97 23.9795 179.98 23.9795H179.99C180.64 23.9795 181.19 23.5095 181.32 22.8995C181.32 22.8795 181.32 22.8595 181.32 22.8395L182.2 18.0595H174.72C173.96 18.0595 173.44 17.4395 173.57 16.6695L175.29 7.32953C175.42 6.56953 176.14 5.94953 176.9 5.94953H183.08C183.84 5.94953 184.57 5.32953 184.69 4.56953L185.51 0.0395312H185.54ZM109.24 9.80953L107.3 20.3395C106.88 22.5095 105.88 23.9895 102.64 23.9895H85.98C82.98 23.9895 82.25 22.5095 82.68 20.3395L84.6 9.80953C85.01 7.63953 86.01 6.15953 89.2 6.15953H105.9C108.89 6.15953 109.62 7.62953 109.23 9.80953H109.24ZM96.63 11.3695C95.77 11.3695 95.01 11.3695 94.71 12.9495L93.93 17.1995C93.64 18.7695 94.62 18.7695 95.27 18.7695C95.96 18.7695 96.92 18.7695 97.21 17.1995L97.99 12.9495C98.28 11.3795 97.44 11.3695 96.63 11.3695ZM145.01 0.0395312H155.58L151.42 22.5995C151.29 23.3595 150.57 23.9795 149.81 23.9795H139.25L139.57 22.2095C139.57 22.2095 138.45 23.9795 136.04 23.9795H128.8C125.8 23.9795 125.07 22.5095 125.48 20.3395L127.42 9.80953C127.83 7.63953 128.83 6.15953 132.05 6.15953H139.31C141.7 6.15953 142.22 7.74953 142.22 7.74953L143.4 1.41953C143.53 0.659531 144.25 0.0395312 145.01 0.0395312ZM140.21 11.3795C139.35 11.3795 138.59 11.3795 138.29 12.9595L137.51 17.2095C137.22 18.7895 138.2 18.7895 138.85 18.7895C139.54 18.7895 140.5 18.7895 140.79 17.2095L141.57 12.9595C141.86 11.3895 141.02 11.3795 140.21 11.3795ZM75.66 5.80953C69.83 5.80953 67.66 7.82953 67.66 7.82953L67.97 6.15953H58.23C57.47 6.15953 56.74 6.77953 56.62 7.54953L53.54 23.9895H63.2C63.96 23.9895 64.69 23.3695 64.81 22.6095L66.54 13.2495C66.54 13.2495 66.89 11.3795 68.67 11.3795C70.15 11.3795 69.92 12.6595 69.92 12.6595L67.81 23.9995H77.5C78.26 23.9995 78.99 23.3795 79.11 22.6195L81.19 11.3595C81.82 7.82953 79.42 5.82953 75.65 5.82953L75.66 5.80953ZM115.51 0.0395312C114.75 0.0395312 114.02 0.659531 113.9 1.41953L109.74 23.9795H120.32C121.08 23.9795 121.81 23.3595 121.93 22.5995L126.09 0.0395312H115.51ZM48.62 8.65953L49.08 6.15953H38.5C37.74 6.15953 37.01 6.77953 36.89 7.53953L33.86 23.9795H44.43C45.19 23.9795 45.92 23.3595 46.04 22.5995L47 17.1595C47.3 15.3795 48.98 13.9395 50.75 13.9395C51.45 13.9395 52.07 14.1695 52.53 14.5495L54.1 6.08953C50 6.61953 48.61 8.64953 48.61 8.64953L48.62 8.65953ZM35.17 0.0195312L31.01 22.5895C30.88 23.3495 30.16 23.9695 29.4 23.9695H18.19L19.09 19.9095H14.13L12.96 22.5895C12.59 23.3895 11.75 23.9795 10.87 23.9795H0L9.24 4.37953C10.45 1.84953 13.12 0.0195312 15.91 0.0195312H35.16H35.17ZM22.18 6.12953H21.7C20.82 6.12953 19.98 6.69953 19.59 7.48953C18.75 9.32953 16.73 14.0395 16.73 14.0395H20.4L22.18 6.11953V6.12953Z" fill="#2D3737"/>
</g>
<defs>
<clipPath id="clip0_2116_7333">
<rect width="280" height="24" fill="white"/>
</clipPath>
</defs>
</svg>
