<svg width="109" height="24" viewBox="0 0 109 24" fill="none" xmlns="http://www.w3.org/2000/svg">
<path d="M33.1161 5.21729H42.419V7.18471H35.3131V10.4446H41.6047V12.4063H35.3131V15.7716H42.4997V17.739H33.1084L33.1161 5.21729Z" fill="#2D3737"/>
<path d="M44.5869 14.6326V14.5937C44.5869 12.4148 46.1454 11.3459 48.4017 11.3459C49.2455 11.3336 50.0856 11.4719 50.8886 11.7554V11.5076C50.8886 10.0742 50.0821 9.3083 48.5948 9.3083C47.6831 9.31241 46.7825 9.52737 45.9523 9.93902L45.3896 8.12466C46.478 7.56479 47.6694 7.28458 48.8724 7.30554C50.2565 7.30554 51.2881 7.7151 51.937 8.43183C52.6197 9.15881 52.9347 10.2278 52.9347 11.5466V17.5282H50.8717V16.2668C50.2415 17.0859 49.2794 17.7392 47.8709 17.7392C46.1267 17.7473 44.5869 16.6579 44.5869 14.6326ZM50.9223 13.9056V13.2176C50.251 12.942 49.539 12.8032 48.8218 12.808C47.4564 12.808 46.6518 13.4387 46.6518 14.4913V14.5282C46.6518 15.5029 47.4395 16.0579 48.4542 16.0579C49.8552 16.0661 50.9223 15.1855 50.9223 13.9056Z" fill="#2D3737"/>
<path d="M55.0215 16.2301L55.9541 14.6658C56.9632 15.4838 58.0245 15.9071 58.9646 15.9071C59.8693 15.9071 60.3916 15.4858 60.3916 14.8192V14.7804C60.3916 13.9972 59.4179 13.7314 58.3398 13.3694C56.9819 12.9482 55.4673 12.347 55.4673 10.4105V10.3717C55.4673 8.46386 56.9129 7.30444 58.7408 7.30444C59.9423 7.32842 61.113 7.72549 62.1169 8.44955L61.2813 10.0854C60.3934 9.49446 59.4533 9.13252 58.6886 9.13252C57.8697 9.13252 57.3997 9.55171 57.3997 10.1243V10.1631C57.3997 10.9074 58.392 11.2121 59.472 11.5945C60.8112 12.0525 62.3258 12.7192 62.3258 14.5329V14.5718C62.3258 16.6882 60.8336 17.7392 58.9143 17.7392C57.5009 17.7176 56.1331 17.1873 55.0215 16.2301Z" fill="#2D3737"/>
<path d="M71.3783 7.30638H73.8044L69.7629 17.1431C68.9542 19.0999 68.0486 19.826 66.4126 19.826C65.5697 19.8335 64.7396 19.6327 64.005 19.2436L64.7952 17.6129C65.2109 17.8397 65.6805 17.9646 66.1609 17.9759C66.8169 17.9759 67.2213 17.7041 67.605 16.8888L63.3696 7.30444H65.8721L68.7417 14.4058L71.3783 7.30638Z" fill="#2D3737"/>
<path d="M75.8931 4.17401H81.2801C84.4246 4.17401 86.3259 6.09174 86.3259 8.8604V8.89984C86.3259 12.0379 83.9523 13.6734 80.9955 13.6734H78.7915V17.7392H75.8911L75.8931 4.17401ZM81.0903 11.0106C82.5415 11.0106 83.3892 10.1202 83.3892 8.95795V8.91852C83.3892 7.58192 82.485 6.86589 81.0338 6.86589H78.7935V11.0168L81.0903 11.0106Z" fill="#2D3737"/>
<path d="M87.3696 14.6523V14.6158C87.3696 12.4055 89.0638 11.3772 91.4846 11.3772C92.3335 11.3667 93.1776 11.5037 93.9789 11.7821V11.612C93.9789 10.4219 93.2359 9.75997 91.7887 9.75997C90.8223 9.76118 89.8651 9.94744 88.9699 10.3085L88.2453 8.11639C89.4872 7.55288 90.8418 7.27605 92.2071 7.30674C93.789 7.30674 94.9321 7.71157 95.6546 8.44025C96.418 9.19524 96.7609 10.3105 96.7609 11.6788V17.5488H93.9605V16.4537C93.2542 17.2289 92.2847 17.7391 90.8743 17.7391C88.9495 17.7512 87.3696 16.6541 87.3696 14.6523ZM94.0176 13.9904V13.4823C93.4355 13.2268 92.805 13.0977 92.1684 13.1038C90.9314 13.1038 90.1701 13.5957 90.1701 14.5004V14.5389C90.1701 15.3141 90.8171 15.7675 91.7499 15.7675C93.1032 15.7736 94.0176 15.0308 94.0176 13.9904Z" fill="#2D3737"/>
<path d="M105.286 7.30444H108.239L104.388 17.1388C103.621 19.0907 102.799 19.8257 101.096 19.8257C100.207 19.8378 99.3318 19.6075 98.5736 19.1617L99.5273 17.1925C99.8918 17.4164 100.309 17.5484 100.741 17.5764C101.228 17.5764 101.489 17.4324 101.743 16.9488L97.8042 7.30444H100.81L103.09 13.8415L105.286 7.30444Z" fill="#2D3737"/>
<path d="M24.7607 12C24.7607 14.3194 24.6898 16.6402 24.5479 18.9623C24.5479 19.0021 24.5479 19.0438 24.5479 19.0836C24.3578 21.6178 22.3297 23.6247 19.7936 23.7881H19.7121C15.0888 24.0706 10.4526 24.0706 5.82929 23.7881H5.73977H5.68407C3.17699 23.5946 1.18508 21.6026 0.991492 19.0956C0.990453 19.0803 0.990453 19.065 0.991492 19.0498C0.991492 19.014 0.991492 18.9802 0.991492 18.9444C0.837659 16.6263 0.760742 14.3115 0.760742 12C0.760742 9.68852 0.831691 7.36776 0.973589 5.03771C0.973589 4.99793 0.973589 4.95615 0.973589 4.91637C1.16373 2.38218 3.19179 0.375342 5.72784 0.211854H5.8094C10.4327 -0.070618 15.0689 -0.070618 19.6922 0.211854H19.7817H19.8374C22.3445 0.405438 24.3364 2.39735 24.53 4.90444C24.531 4.91967 24.531 4.93495 24.53 4.95019C24.532 4.9853 24.532 5.0205 24.53 5.05562C24.6719 7.3671 24.7428 9.67857 24.7428 11.9901" fill="#2D3737"/>
<path d="M18.4997 17.7392C18.4997 16.5866 17.5206 15.6522 16.3128 15.6522H7.02148C7.02148 16.206 7.25216 16.7372 7.66272 17.1286C8.07328 17.52 8.63004 17.7397 9.21039 17.7392H18.4997Z" fill="#FFE00A"/>
<path d="M12.1275 6.26093C11.235 6.26051 10.4209 6.81372 10.0322 7.68482L10.0087 7.73795L9.55391 8.78355L8.84828 10.4051L7.71927 13.0042L7.02148 14.6066H9.17758C9.47924 14.6085 9.75515 14.4226 9.88713 14.1285L9.90673 14.0838L10.3654 13.0042L11.4709 10.403L11.7806 9.67614L11.808 9.61238C12.0329 9.10398 12.5071 8.78079 13.0272 8.78142H15.6047L15.3146 10.2308C15.2965 10.3322 15.2138 10.4048 15.1186 10.403H13.7465C13.5587 10.4041 13.391 10.531 13.3251 10.7217V10.7494L13.0331 11.7121L12.7214 12.7322C12.7184 12.7526 12.7184 12.7734 12.7214 12.7938C12.7214 12.9112 12.8092 13.0063 12.9174 13.0063H14.7775L14.4561 14.6088H16.5965C16.8698 14.6098 17.106 14.4017 17.161 14.1114L17.357 13.0063L17.798 10.4051L18.0724 8.78355L18.4997 6.26093H12.1275Z" fill="white"/>
</svg>
