<svg width="24" height="24" viewBox="0 0 24 24" fill="none" xmlns="http://www.w3.org/2000/svg">
<path fill-rule="evenodd" clip-rule="evenodd" d="M13.1988 16.9689C13.1988 17.2592 13.0942 17.5249 12.9211 17.7311C12.7034 17.9901 12.3774 18.1551 12.0127 18.1551C11.3576 18.1551 10.8264 17.6241 10.8264 16.9689C10.8264 16.9279 10.8283 16.8874 10.8326 16.8476C10.8568 16.6082 10.9522 16.3899 11.0973 16.2143C11.2423 16.0386 11.4371 15.9053 11.6598 15.8359C11.6969 15.8244 11.7348 15.8147 11.7734 15.8066C11.8509 15.7909 11.9308 15.7826 12.0127 15.7826C12.2583 15.7826 12.4865 15.8573 12.6759 15.9851C12.7541 16.038 12.8246 16.1006 12.8879 16.17C13.0805 16.3809 13.1988 16.6607 13.1988 16.9689V16.9689ZM11.2569 13.3161V9.56606C11.2569 9.15187 11.5927 8.81606 12.0069 8.81606C12.4211 8.81606 12.7569 9.15187 12.7569 9.56606V13.3161C12.7569 13.7302 12.4211 14.0661 12.0069 14.0661C11.5927 14.0661 11.2569 13.7302 11.2569 13.3161V13.3161ZM2.31388 20.4416C2.30338 20.4356 2.2745 20.4077 2.25857 20.3571C2.2535 20.3406 2.2505 20.3242 2.24994 20.3089C2.2505 20.2954 2.25332 20.2824 2.2595 20.2716L7.496 11.1585L11.9514 3.40481C11.9542 3.39956 11.9568 3.39506 11.9613 3.39206C11.9662 3.38887 11.9729 3.387 11.9842 3.387C12.0136 3.387 12.0365 3.40069 12.0517 3.42675C12.0519 3.42675 12.0519 3.42694 12.0519 3.42712L20.4688 18.0458L21.7445 20.2614C21.7505 20.2716 21.7537 20.2864 21.7537 20.3033C21.7535 20.3198 21.7505 20.3385 21.7447 20.3571C21.728 20.4099 21.6974 20.4381 21.6941 20.4411L2.31388 20.4416ZM23.2535 20.3048V20.3048C23.2535 20.0972 23.2143 19.8913 23.1358 19.6993C23.1095 19.6352 23.0789 19.5728 23.0443 19.512L13.3513 2.67788C13.0655 2.18269 12.5351 1.875 11.9671 1.875H11.9669C11.4172 1.875 10.9258 2.15794 10.652 2.63194C10.6518 2.6325 10.6514 2.63288 10.6511 2.63344L0.959754 19.5114C0.938942 19.5473 0.923567 19.5849 0.905942 19.6219C0.798317 19.8484 0.744129 20.0961 0.750504 20.346V20.3462V20.3466C0.751629 20.4041 0.757442 20.4617 0.764942 20.5193C0.766067 20.5305 0.765879 20.5418 0.767567 20.553C0.777129 20.6181 0.791192 20.6826 0.808442 20.7465C0.809379 20.7503 0.809754 20.754 0.810879 20.7576C0.848004 20.892 0.902567 21.0231 0.974192 21.1476C0.974754 21.1483 0.974942 21.1491 0.975504 21.1498V21.15C1.26144 21.6452 1.76 21.9411 2.30938 21.9411H2.30957H21.6941C21.7801 21.9411 21.8643 21.9313 21.9474 21.9169C22.0149 21.9053 22.0809 21.8889 22.1458 21.8683C22.5073 21.7532 22.8208 21.5033 23.0257 21.1485C23.1693 20.8997 23.2426 20.6244 23.2503 20.3505C23.2507 20.3353 23.2535 20.3201 23.2535 20.3048V20.3048Z" fill="#C23131"/>
</svg>
