<svg width="84" height="85" viewBox="0 0 84 85" fill="none" xmlns="http://www.w3.org/2000/svg">
<path fill-rule="evenodd" clip-rule="evenodd" d="M61.1481 71.4099C61.1481 73.6074 57.2138 76.5253 50.5855 77.9599V68.8468L61.1481 63.3679V70.965C61.1481 71.0401 61.1508 71.1137 61.1561 71.1881C61.1508 71.2611 61.1481 71.3355 61.1481 71.4099ZM22.8519 71.4099V63.6087L33.4145 69.0877V77.9599C26.7869 76.5253 22.8519 73.6074 22.8519 71.4099ZM33.4145 7.04012V19.1682L22.8519 13.6908V13.5887C22.8519 11.3912 26.7869 8.47467 33.4145 7.04012ZM61.1381 13.4548L50.5855 18.9274V7.04012C57.0813 8.44562 60.9849 11.2743 61.1381 13.4548ZM61.1481 44.6253L50.5855 50.1027V37.67L61.1481 32.1925V44.6253ZM50.5855 53.2573L61.1481 47.7805V60.2133L50.5855 65.6915V53.2573ZM50.5855 22.082L61.1481 16.6052V29.0372L50.5855 34.5154V22.082ZM43.3363 6.18931C44.9526 6.23677 46.4799 6.36783 47.9095 6.5669V78.4331C46.4799 78.6322 44.9526 78.7639 43.3363 78.8107V6.18931ZM36.0905 6.56689C37.5201 6.36783 39.0461 6.23677 40.6604 6.19002V78.8107C39.0461 78.7632 37.5201 78.6322 36.0905 78.4331V6.56689ZM22.8519 48.0207L33.4145 53.4982V65.9324L22.8519 60.4542V48.0207ZM33.4145 37.9109V50.3436L22.8519 44.8661V32.4327L33.4145 37.9109ZM33.4145 34.7563L22.8519 29.2781V16.846L33.4145 22.3228V34.7563ZM66.5 13.3047C66.5 13.1481 66.488 12.993 66.4645 12.8428C65.7889 5.75505 55.4985 0.5 42.0003 0.5C28.5022 0.5 18.2111 5.75505 17.5355 12.8428C17.512 12.993 17.5 13.1481 17.5 13.3047V71.4098C17.5 78.8723 28.0332 84.5 42.0003 84.5C55.9675 84.5 66.5 78.8723 66.5 71.4098C66.5 71.3355 66.4973 71.2611 66.492 71.1881C66.4973 71.1137 66.5 71.0401 66.5 70.965V13.3047Z" fill="#12B447"/>
<path fill-rule="evenodd" clip-rule="evenodd" d="M61.1481 71.4099C61.1481 73.6074 57.2138 76.5253 50.5855 77.9599V68.8468L61.1481 63.3679V70.965C61.1481 71.0401 61.1508 71.1137 61.1561 71.1881C61.1508 71.2611 61.1481 71.3355 61.1481 71.4099ZM22.8519 71.4099V63.6087L33.4145 69.0877V77.9599C26.7869 76.5253 22.8519 73.6074 22.8519 71.4099ZM33.4145 7.04012V19.1682L22.8519 13.6908V13.5887C22.8519 11.3912 26.7869 8.47467 33.4145 7.04012ZM61.1381 13.4548L50.5855 18.9274V7.04012C57.0813 8.44562 60.9849 11.2743 61.1381 13.4548ZM61.1481 44.6253L50.5855 50.1027V37.67L61.1481 32.1925V44.6253ZM50.5855 53.2573L61.1481 47.7805V60.2133L50.5855 65.6915V53.2573ZM50.5855 22.082L61.1481 16.6052V29.0372L50.5855 34.5154V22.082ZM43.3363 6.18931C44.9526 6.23677 46.4799 6.36783 47.9095 6.5669V78.4331C46.4799 78.6322 44.9526 78.7639 43.3363 78.8107V6.18931ZM36.0905 6.56689C37.5201 6.36783 39.0461 6.23677 40.6604 6.19002V78.8107C39.0461 78.7632 37.5201 78.6322 36.0905 78.4331V6.56689ZM22.8519 48.0207L33.4145 53.4982V65.9324L22.8519 60.4542V48.0207ZM33.4145 37.9109V50.3436L22.8519 44.8661V32.4327L33.4145 37.9109ZM33.4145 34.7563L22.8519 29.2781V16.846L33.4145 22.3228V34.7563ZM66.5 13.3047C66.5 13.1481 66.488 12.993 66.4645 12.8428C65.7889 5.75505 55.4985 0.5 42.0003 0.5C28.5022 0.5 18.2111 5.75505 17.5355 12.8428C17.512 12.993 17.5 13.1481 17.5 13.3047V71.4098C17.5 78.8723 28.0332 84.5 42.0003 84.5C55.9675 84.5 66.5 78.8723 66.5 71.4098C66.5 71.3355 66.4973 71.2611 66.492 71.1881C66.4973 71.1137 66.5 71.0401 66.5 70.965V13.3047Z" fill="#12B447"/>
</svg>
