<svg width="24" height="24" viewBox="0 0 24 24" fill="none" xmlns="http://www.w3.org/2000/svg">
<g clip-path="url(#clip0_2131_9516)">
<path d="M11.2 11.416L11.2 7.416C11.2 7.20383 11.2843 7.00034 11.4343 6.85031C11.5843 6.70028 11.7878 6.616 12 6.616C12.2122 6.616 12.4157 6.70028 12.5657 6.85031C12.7157 7.00034 12.8 7.20383 12.8 7.416L12.8 11.416C12.8 11.6282 12.7157 11.8317 12.5657 11.9817C12.4157 12.1317 12.2122 12.216 12 12.216C11.7878 12.216 11.5843 12.1317 11.4343 11.9817C11.2843 11.8317 11.2 11.6282 11.2 11.416ZM12 14.048C11.7478 14.0464 11.5007 14.1199 11.2903 14.259C11.0799 14.3982 10.9157 14.5968 10.8184 14.8295C10.7211 15.0623 10.6953 15.3187 10.7441 15.5662C10.7929 15.8137 10.9142 16.041 11.0926 16.2194C11.271 16.3978 11.4983 16.5191 11.7458 16.5679C11.9933 16.6167 12.2497 16.5909 12.4825 16.4936C12.7152 16.3964 12.9138 16.2321 13.053 16.0217C13.1921 15.8113 13.2656 15.5642 13.264 15.312C13.264 14.9768 13.1308 14.6553 12.8938 14.4182C12.6567 14.1812 12.3352 14.048 12 14.048V14.048ZM24 12C24 14.3734 23.2962 16.6935 21.9776 18.6668C20.6591 20.6402 18.7849 22.1783 16.5922 23.0866C14.3995 23.9948 11.9867 24.2324 9.65892 23.7694C7.33115 23.3064 5.19295 22.1635 3.51472 20.4853C1.83649 18.807 0.693605 16.6689 0.230582 14.3411C-0.232441 12.0133 0.00519943 9.60051 0.913451 7.4078C1.8217 5.21508 3.35977 3.34094 5.33316 2.02236C7.30655 0.703788 9.62663 0 12 0C15.1826 0 18.2349 1.26428 20.4853 3.51472C22.7357 5.76515 24 8.8174 24 12ZM22.4 12C22.4 10.6343 22.131 9.28188 21.6084 8.02009C21.0857 6.75831 20.3196 5.61182 19.3539 4.64609C18.3882 3.68036 17.2417 2.9143 15.9799 2.39165C14.7181 1.869 13.3658 1.6 12 1.6C9.94308 1.6 7.93235 2.20995 6.22207 3.35272C4.5118 4.49548 3.17881 6.11974 2.39166 8.02009C1.60451 9.92044 1.39855 12.0115 1.79984 14.0289C2.20112 16.0463 3.19163 17.8994 4.64609 19.3539C6.10056 20.8084 7.95366 21.7989 9.97107 22.2002C11.9885 22.6014 14.0796 22.3955 15.9799 21.6083C17.8803 20.8212 19.5045 19.4882 20.6473 17.7779C21.7901 16.0677 22.4 14.0569 22.4 12V12Z" fill="#FB8C00"/>
</g>
<defs>
<clipPath id="clip0_2131_9516">
<rect width="24" height="24" fill="white"/>
</clipPath>
</defs>
</svg>
