<svg width="19" height="18" viewBox="0 0 19 18" fill="none" xmlns="http://www.w3.org/2000/svg">
<g clip-path="url(#clip0_2116_5452)">
<path d="M18.1304 4.35778L7.53491 14.9533C7.42037 15.0687 7.28411 15.1604 7.13398 15.2229C6.98384 15.2855 6.82281 15.3177 6.66016 15.3177C6.49752 15.3177 6.33649 15.2855 6.18635 15.2229C6.03622 15.1604 5.89995 15.0687 5.78542 14.9533L0.85729 10.0251C0.627822 9.7943 0.499023 9.48204 0.499023 9.15655C0.499023 8.83107 0.627822 8.5188 0.85729 8.28797C0.971823 8.17249 1.10809 8.08083 1.25822 8.01829C1.40836 7.95574 1.56939 7.92353 1.73203 7.92353C1.89468 7.92353 2.05571 7.95574 2.20584 8.01829C2.35598 8.08083 2.49224 8.17249 2.60678 8.28797L6.66016 12.3414L16.3932 2.6083C16.6241 2.37883 16.9363 2.25003 17.2618 2.25003C17.5873 2.25003 17.8996 2.37883 18.1304 2.6083C18.2459 2.72283 18.3375 2.85909 18.4001 3.00923C18.4626 3.15936 18.4948 3.3204 18.4948 3.48304C18.4948 3.64568 18.4626 3.80672 18.4001 3.95685C18.3375 4.10699 18.2459 4.24325 18.1304 4.35778V4.35778Z" fill="#2D3737"/>
</g>
<defs>
<clipPath id="clip0_2116_5452">
<rect width="18" height="18" fill="white" transform="translate(0.5)"/>
</clipPath>
</defs>
</svg>
