<svg width="19" height="19" viewBox="0 0 19 19" fill="none" xmlns="http://www.w3.org/2000/svg">
<path d="M13.976 8.774C14.0322 8.82978 14.0769 8.89614 14.1073 8.96925C14.1378 9.04237 14.1535 9.12079 14.1535 9.2C14.1535 9.27921 14.1378 9.35763 14.1073 9.43075C14.0769 9.50386 14.0322 9.57022 13.976 9.626L8.774 14.822C8.71843 14.8787 8.65216 14.9238 8.57904 14.9547C8.50591 14.9856 8.42738 15.0017 8.348 15.002C8.18974 14.9997 8.03878 14.935 7.928 14.822L5.924 12.824C5.81225 12.7116 5.74952 12.5595 5.74952 12.401C5.74952 12.2425 5.81225 12.0904 5.924 11.978C5.97978 11.9218 6.04614 11.8771 6.11925 11.8467C6.19237 11.8162 6.27079 11.8005 6.35 11.8005C6.42921 11.8005 6.50763 11.8162 6.58075 11.8467C6.65386 11.8771 6.72022 11.9218 6.776 11.978L8.348 13.55L13.148 8.75C13.2626 8.6468 13.4126 8.59172 13.5668 8.59619C13.721 8.60066 13.8675 8.66434 13.976 8.774ZM18.05 4.928V17.3C18.05 17.6183 17.9236 17.9235 17.6985 18.1485C17.4735 18.3736 17.1683 18.5 16.85 18.5H2.45C2.13174 18.5 1.82652 18.3736 1.60147 18.1485C1.37643 17.9235 1.25 17.6183 1.25 17.3V4.928C1.25 4.60974 1.37643 4.30452 1.60147 4.07947C1.82652 3.85443 2.13174 3.728 2.45 3.728H4.85V2.3C4.85 1.82261 5.03964 1.36477 5.37721 1.02721C5.71477 0.689642 6.17261 0.5 6.65 0.5V0.5C7.12739 0.5 7.58523 0.689642 7.92279 1.02721C8.26036 1.36477 8.45 1.82261 8.45 2.3V3.698H10.85V2.192C10.85 1.74325 11.0283 1.31289 11.3456 0.995575C11.6629 0.678264 12.0933 0.5 12.542 0.5L12.758 0.5C13.2067 0.5 13.6371 0.678264 13.9544 0.995575C14.2717 1.31289 14.45 1.74325 14.45 2.192V3.698H16.85C17.0101 3.69795 17.1687 3.72995 17.3163 3.79213C17.4638 3.8543 17.5975 3.94538 17.7093 4.06001C17.8211 4.17464 17.9089 4.31049 17.9674 4.45956C18.0259 4.60863 18.054 4.76791 18.05 4.928ZM12.05 6.008C12.05 6.14644 12.105 6.27922 12.2029 6.37711C12.3008 6.475 12.4336 6.53 12.572 6.53H12.788C12.9264 6.53 13.0592 6.475 13.1571 6.37711C13.255 6.27922 13.31 6.14644 13.31 6.008V2.192C13.3062 2.12341 13.2888 2.05625 13.259 1.99438C13.2292 1.9325 13.1874 1.87712 13.1361 1.83141C13.0849 1.7857 13.0251 1.75057 12.9602 1.72802C12.8953 1.70547 12.8266 1.69595 12.758 1.7H12.542C12.4734 1.7 12.4056 1.7135 12.3422 1.73973C12.2789 1.76597 12.2214 1.80442 12.1729 1.85289C12.1244 1.90136 12.086 1.95891 12.0597 2.02224C12.0335 2.08557 12.02 2.15345 12.02 2.222L12.05 6.008ZM5.96 5.9C5.96 6.083 6.0327 6.2585 6.1621 6.3879C6.2915 6.5173 6.467 6.59 6.65 6.59C6.833 6.59 7.0085 6.5173 7.1379 6.3879C7.2673 6.2585 7.34 6.083 7.34 5.9V2.3C7.34 2.117 7.2673 1.9415 7.1379 1.8121C7.0085 1.6827 6.833 1.61 6.65 1.61C6.467 1.61 6.2915 1.6827 6.1621 1.8121C6.0327 1.9415 5.96 2.117 5.96 2.3V5.9ZM16.85 4.928H14.45V6.008C14.45 6.45675 14.2717 6.88711 13.9544 7.20442C13.6371 7.52174 13.2067 7.7 12.758 7.7H12.542C12.0933 7.7 11.6629 7.52174 11.3456 7.20442C11.0283 6.88711 10.85 6.45675 10.85 6.008V4.916H8.45V5.9C8.45 6.37739 8.26036 6.83523 7.92279 7.17279C7.58523 7.51036 7.12739 7.7 6.65 7.7C6.17261 7.7 5.71477 7.51036 5.37721 7.17279C5.03964 6.83523 4.85 6.37739 4.85 5.9V4.916H2.45V17.3H16.85V4.928Z" fill="#FB8C00"/>
</svg>
