<svg width="37" height="36" viewBox="0 0 37 36" fill="none" xmlns="http://www.w3.org/2000/svg">
<g clip-path="url(#clip0_2180_13652)">
<g clip-path="url(#clip1_2180_13652)">
<path d="M18.5 0C14.9399 0 11.4598 1.05568 8.49974 3.03355C5.53966 5.01141 3.23255 7.82263 1.87018 11.1117C0.507799 14.4008 0.151339 18.02 0.845873 21.5116C1.54041 25.0033 3.25474 28.2106 5.77209 30.7279C8.28943 33.2453 11.4967 34.9596 14.9884 35.6541C18.48 36.3487 22.0992 35.9922 25.3883 34.6298C28.6774 33.2675 31.4886 30.9604 33.4665 28.0003C35.4443 25.0402 36.5 21.5601 36.5 18C36.5 13.2261 34.6036 8.64773 31.2279 5.27208C27.8523 1.89642 23.2739 0 18.5 0V0ZM18.5 33.6C15.4146 33.6 12.3985 32.6851 9.83311 30.9709C7.26771 29.2568 5.26821 26.8204 4.08749 23.9699C2.90676 21.1193 2.59783 17.9827 3.19976 14.9566C3.80169 11.9305 5.28744 9.15083 7.46914 6.96913C9.65084 4.78744 12.4305 3.30168 15.4566 2.69975C18.4827 2.09782 21.6193 2.40675 24.4699 3.58748C27.3204 4.76821 29.7568 6.7677 31.4709 9.33311C33.1851 11.8985 34.1 14.9146 34.1 18C34.1 20.0486 33.6965 22.0772 32.9125 23.9699C32.1286 25.8625 30.9795 27.5823 29.5309 29.0309C28.0823 30.4795 26.3626 31.6285 24.4699 32.4125C22.5772 33.1965 20.5486 33.6 18.5 33.6ZM26.336 12.084C26.4485 12.1956 26.5378 12.3283 26.5987 12.4745C26.6596 12.6207 26.691 12.7776 26.691 12.936C26.691 13.0944 26.6596 13.2513 26.5987 13.3975C26.5378 13.5437 26.4485 13.6764 26.336 13.788L16.004 24.108C15.8929 24.2214 15.7603 24.3116 15.6141 24.3734C15.4678 24.4352 15.3108 24.4673 15.152 24.468C14.8355 24.4635 14.5336 24.3341 14.312 24.108L9.51201 19.308C9.31542 19.0784 9.21269 18.7831 9.22435 18.4811C9.23602 18.1791 9.36122 17.8926 9.57493 17.6789C9.78865 17.4652 10.0751 17.34 10.3771 17.3283C10.6792 17.3167 10.9744 17.4194 11.204 17.616L15.152 21.6L24.632 12.12C24.7412 12.0051 24.872 11.913 25.0169 11.849C25.1619 11.785 25.3181 11.7503 25.4765 11.7469C25.6349 11.7436 25.7925 11.7716 25.94 11.8295C26.0875 11.8874 26.2221 11.9739 26.336 12.084Z" fill="#12B447"/>
</g>
</g>
<defs>
<clipPath id="clip0_2180_13652">
<rect width="36" height="36" fill="white" transform="translate(0.5)"/>
</clipPath>
<clipPath id="clip1_2180_13652">
<rect width="36" height="36" fill="white" transform="translate(0.5)"/>
</clipPath>
</defs>
</svg>
