<svg width="30" height="30" viewBox="0 0 30 30" fill="none" xmlns="http://www.w3.org/2000/svg">
<g clip-path="url(#clip0_2116_7397)">
<g clip-path="url(#clip1_2116_7397)">
<path d="M15 0C12.0333 0 9.13319 0.879735 6.66645 2.52796C4.19972 4.17618 2.27713 6.51886 1.14181 9.25975C0.00649929 12.0006 -0.290551 15.0166 0.288228 17.9264C0.867006 20.8361 2.29562 23.5088 4.3934 25.6066C6.49119 27.7044 9.16394 29.133 12.0737 29.7118C14.9834 30.2906 17.9994 29.9935 20.7403 28.8582C23.4811 27.7229 25.8238 25.8003 27.472 23.3336C29.1203 20.8668 30 17.9667 30 15C30 11.0218 28.4197 7.20644 25.6066 4.3934C22.7936 1.58035 18.9783 0 15 0V0ZM15 28C12.4288 28 9.91543 27.2376 7.77759 25.8091C5.63975 24.3806 3.97351 22.3503 2.98957 19.9749C2.00563 17.5994 1.74819 14.9856 2.2498 12.4638C2.75141 9.94207 3.98954 7.62569 5.80762 5.80761C7.6257 3.98953 9.94208 2.7514 12.4638 2.24979C14.9856 1.74818 17.5995 2.00563 19.9749 2.98957C22.3503 3.97351 24.3807 5.63975 25.8091 7.77759C27.2376 9.91543 28 12.4288 28 15C28 16.7072 27.6638 18.3977 27.0104 19.9749C26.3571 21.5521 25.3996 22.9852 24.1924 24.1924C22.9852 25.3996 21.5521 26.3571 19.9749 27.0104C18.3977 27.6637 16.7072 28 15 28V28ZM21.53 10.07C21.6237 10.163 21.6981 10.2736 21.7489 10.3954C21.7997 10.5173 21.8258 10.648 21.8258 10.78C21.8258 10.912 21.7997 11.0427 21.7489 11.1646C21.6981 11.2864 21.6237 11.397 21.53 11.49L12.92 20.09C12.8274 20.1845 12.7169 20.2597 12.5951 20.3112C12.4732 20.3627 12.3423 20.3895 12.21 20.39C11.9462 20.3862 11.6946 20.2784 11.51 20.09L7.51001 16.09C7.34618 15.8987 7.26057 15.6526 7.27029 15.4009C7.28002 15.1493 7.38435 14.9105 7.56244 14.7324C7.74054 14.5543 7.97928 14.45 8.23095 14.4403C8.48263 14.4306 8.7287 14.5162 8.92001 14.68L12.21 18L20.11 10.1C20.201 10.0043 20.31 9.92753 20.4308 9.87417C20.5516 9.82081 20.6817 9.7919 20.8138 9.78911C20.9458 9.78632 21.077 9.8097 21.2 9.85792C21.3229 9.90613 21.4351 9.97821 21.53 10.07Z" fill="#12B447"/>
</g>
</g>
<defs>
<clipPath id="clip0_2116_7397">
<rect width="30" height="30" fill="white"/>
</clipPath>
<clipPath id="clip1_2116_7397">
<rect width="30" height="30" fill="white"/>
</clipPath>
</defs>
</svg>
